<svg xmlns="http://www.w3.org/2000/svg" viewBox="0 0 322 113"><defs><style>.cls-1{fill:#fff;}</style></defs><title>logo</title><g id="Header"><path class="cls-1" d="M10.41,62,23.64,12.65H52.23a22.26,22.26,0,0,1,9.17,1.77,15.41,15.41,0,0,1,6.28,5A16.49,16.49,0,0,1,70.62,27a24.92,24.92,0,0,1-.83,9.81,34.13,34.13,0,0,1-4.47,10,35.45,35.45,0,0,1-7.13,8,33.3,33.3,0,0,1-9,5.3A27.6,27.6,0,0,1,39,62Zm30.9-8.62a17.73,17.73,0,0,0,6.47-1.22,21.61,21.61,0,0,0,5.79-3.36,22.53,22.53,0,0,0,7.48-11.58,16.85,16.85,0,0,0,.56-6.42,10.81,10.81,0,0,0-1.87-5.06,10.23,10.23,0,0,0-4-3.29,13.45,13.45,0,0,0-5.83-1.19h-20L21.28,53.4Z"/><path class="cls-1" d="M39,62.46H9.84L23.3,12.22H52.23A22.79,22.79,0,0,1,61.57,14,15.91,15.91,0,0,1,68,19.12,17,17,0,0,1,71,27a25.45,25.45,0,0,1-.84,10,34.73,34.73,0,0,1-4.53,10.11,36.06,36.06,0,0,1-7.22,8.08,33.89,33.89,0,0,1-9.14,5.37A28.15,28.15,0,0,1,39,62.46Zm-28-.86H39a27.29,27.29,0,0,0,10-1.91,33,33,0,0,0,8.91-5.23,35.19,35.19,0,0,0,7-7.88,33.86,33.86,0,0,0,4.42-9.86,24.61,24.61,0,0,0,.82-9.64,16.14,16.14,0,0,0-2.87-7.44,15.06,15.06,0,0,0-6.11-4.82,21.94,21.94,0,0,0-9-1.73H24Zm30.34-7.76H20.71l8.84-33H49.92a13.94,13.94,0,0,1,6,1.23,10.71,10.71,0,0,1,4.17,3.43A11.29,11.29,0,0,1,62,30.77a17.35,17.35,0,0,1-.58,6.58,23,23,0,0,1-7.63,11.8,22.14,22.14,0,0,1-5.91,3.43A18.24,18.24,0,0,1,41.31,53.83ZM21.84,53H41.31a17.37,17.37,0,0,0,6.32-1.19,21.27,21.27,0,0,0,5.68-3.29,22.1,22.1,0,0,0,7.34-11.35,16.5,16.5,0,0,0,.55-6.25A10.43,10.43,0,0,0,59.4,26a9.85,9.85,0,0,0-3.84-3.16,13.08,13.08,0,0,0-5.64-1.15H30.21Z"/><path class="cls-1" d="M115,62,110.92,49.6H87.56l5.95-7h15.14L102.6,24.13,70,62H60.19l41.05-47.27a9.73,9.73,0,0,1,2.31-2A5,5,0,0,1,106.2,12a3.08,3.08,0,0,1,2.21.75,4.67,4.67,0,0,1,1.19,2L125.38,62Z"/><path class="cls-1" d="M126,62.46h-11.3L110.61,50h-24l6.68-7.86h14.75L102.43,25,70.23,62.46h-11l41.67-48a10.2,10.2,0,0,1,2.41-2.12,5.42,5.42,0,0,1,2.87-.81,3.51,3.51,0,0,1,2.51.87,5.12,5.12,0,0,1,1.3,2.22Zm-10.68-.86h9.48l-15.6-46.7A4.28,4.28,0,0,0,108.11,13a2.65,2.65,0,0,0-1.91-.63,4.57,4.57,0,0,0-2.42.68A9.33,9.33,0,0,0,101.57,15L61.14,61.59h8.7l32.94-38.33L109.25,43H93.71l-5.21,6.13h22.74Z"/><path class="cls-1" d="M130.68,62l13.23-49.37h8.62L139.3,62Zm40.68,0L149.54,40.29a2.86,2.86,0,0,1-1-1.73,5.33,5.33,0,0,1,.19-1.87,6.1,6.1,0,0,1,1-2,8.21,8.21,0,0,1,2.28-1.9l31.53-20.1h13.24L158,36.76,184.53,62Z"/><path class="cls-1" d="M185.61,62.46H171.18L149.24,40.6a3.27,3.27,0,0,1-1.12-2,5.78,5.78,0,0,1,.21-2,6.55,6.55,0,0,1,1-2.18,8.52,8.52,0,0,1,2.4-2l31.63-20.17h14.88l-39.6,24.61Zm-14.08-.86h11.91l-26.2-24.9,38-23.6h-11.6l-31.43,20A7.86,7.86,0,0,0,150,34.91a5.7,5.7,0,0,0-.89,1.89,4.93,4.93,0,0,0-.18,1.72,2.47,2.47,0,0,0,.86,1.46Zm-31.9.86h-9.52l13.46-50.24h9.52Zm-8.39-.86H139l13-48.51h-7.73Z"/><path class="cls-1" d="M205,62a19.9,19.9,0,0,1-9-1.94,16.18,16.18,0,0,1-6.19-5.3,17.49,17.49,0,0,1-2.89-8,26.24,26.24,0,0,1,.88-10,33.06,33.06,0,0,1,4.46-9.92,32.06,32.06,0,0,1,16-12.53,29.51,29.51,0,0,1,10-1.73h12a22.86,22.86,0,0,1,9.34,1.77,15.37,15.37,0,0,1,6.31,5A16.22,16.22,0,0,1,248.79,27a25.4,25.4,0,0,1-.86,9.81,34.13,34.13,0,0,1-4.47,10,35.06,35.06,0,0,1-7.16,8,33.84,33.84,0,0,1-9.06,5.3A27.77,27.77,0,0,1,217,62Zm14.33-8.62a18.17,18.17,0,0,0,6.58-1.22,21.43,21.43,0,0,0,5.82-3.36,22.53,22.53,0,0,0,7.48-11.58,16.86,16.86,0,0,0,.57-6.42,10.81,10.81,0,0,0-1.87-5.06,10.18,10.18,0,0,0-4-3.29,13.85,13.85,0,0,0-5.93-1.19h-12a18.11,18.11,0,0,0-6.46,1.19,20.76,20.76,0,0,0-5.74,3.29,22.18,22.18,0,0,0-4.54,5,21.77,21.77,0,0,0-2.88,6.45,17.1,17.1,0,0,0-.57,6.45,11.26,11.26,0,0,0,1.82,5.13,10,10,0,0,0,4,3.36,13.05,13.05,0,0,0,5.82,1.22Z"/><path class="cls-1" d="M217,62.46H205a20.42,20.42,0,0,1-9.22-2A16.68,16.68,0,0,1,189.41,55a18,18,0,0,1-3-8.17,26.8,26.8,0,0,1,.89-10.15,33.64,33.64,0,0,1,4.52-10A32.49,32.49,0,0,1,208.05,14a30.08,30.08,0,0,1,10.15-1.76h12a23.39,23.39,0,0,1,9.52,1.8,15.87,15.87,0,0,1,6.49,5.1,16.72,16.72,0,0,1,3,7.84,26,26,0,0,1-.88,10,34.7,34.7,0,0,1-4.53,10.11,35.66,35.66,0,0,1-7.25,8.08,34.42,34.42,0,0,1-9.17,5.36A28.33,28.33,0,0,1,217,62.46Zm1.21-49.37a29.22,29.22,0,0,0-9.86,1.71,31.62,31.62,0,0,0-15.77,12.36,32.78,32.78,0,0,0-4.4,9.79,25.94,25.94,0,0,0-.86,9.82,17.14,17.14,0,0,0,2.81,7.79,15.82,15.82,0,0,0,6,5.16A19.56,19.56,0,0,0,205,61.59h12a27.46,27.46,0,0,0,10.07-1.91A33.55,33.55,0,0,0,236,54.46a34.79,34.79,0,0,0,7.08-7.88,33.86,33.86,0,0,0,4.42-9.86,25.09,25.09,0,0,0,.85-9.65,15.87,15.87,0,0,0-2.83-7.44,15,15,0,0,0-6.14-4.82,22.54,22.54,0,0,0-9.16-1.73Zm1.1,40.75h-12a13.54,13.54,0,0,1-6-1.27,10.51,10.51,0,0,1-4.12-3.51,11.73,11.73,0,0,1-1.89-5.32,17.6,17.6,0,0,1,.59-6.61,22.3,22.3,0,0,1,2.94-6.58,22.7,22.7,0,0,1,4.63-5.12,21.28,21.28,0,0,1,5.86-3.36,18.62,18.62,0,0,1,6.62-1.22h12A14.33,14.33,0,0,1,234,22.08a10.65,10.65,0,0,1,4.21,3.43,11.29,11.29,0,0,1,1.95,5.26,17.36,17.36,0,0,1-.58,6.58A23,23,0,0,1,232,49.15,22,22,0,0,1,226,52.58,18.69,18.69,0,0,1,219.31,53.83Zm-3.41-32.12a17.76,17.76,0,0,0-6.31,1.16A20.43,20.43,0,0,0,204,26.1,21.85,21.85,0,0,0,199.51,31a21.44,21.44,0,0,0-2.83,6.32,16.76,16.76,0,0,0-.56,6.29,10.89,10.89,0,0,0,1.75,4.93,9.66,9.66,0,0,0,3.79,3.22A12.69,12.69,0,0,0,207.29,53h12a17.83,17.83,0,0,0,6.42-1.19,21.11,21.11,0,0,0,5.71-3.29,22.09,22.09,0,0,0,7.34-11.35,16.5,16.5,0,0,0,.55-6.25A10.43,10.43,0,0,0,237.53,26a9.8,9.8,0,0,0-3.87-3.15,13.48,13.48,0,0,0-5.75-1.15Z"/><path class="cls-1" d="M265.86,25.9,256.18,62H248L260,17.2a7.5,7.5,0,0,1,2.2-3.77,5.25,5.25,0,0,1,3.6-1.39,3.64,3.64,0,0,1,1.72.41A4.48,4.48,0,0,1,269,13.81l25.58,34.57,9.68-36.13h8.22L300.32,57.48a7.47,7.47,0,0,1-2.21,3.8,5.12,5.12,0,0,1-3.45,1.36,4.1,4.1,0,0,1-3.45-1.83Z"/><path class="cls-1" d="M294.66,63.07a4.53,4.53,0,0,1-3.8-2L266,26.88l-9.53,35.57H247.4l12.16-45.37a8,8,0,0,1,2.33-4,5.69,5.69,0,0,1,3.89-1.5,4.09,4.09,0,0,1,1.93.46,4.92,4.92,0,0,1,1.62,1.49l25,33.84,9.53-35.58H313L300.74,57.59a7.92,7.92,0,0,1-2.34,4A5.56,5.56,0,0,1,294.66,63.07Zm-29-38.16,25.88,35.64a3.66,3.66,0,0,0,3.1,1.66A4.66,4.66,0,0,0,297.83,61a7.07,7.07,0,0,0,2.08-3.59l12-44.68h-7.32l-9.83,36.67L268.62,14.07a4.09,4.09,0,0,0-1.32-1.23,3.23,3.23,0,0,0-1.52-.36,4.85,4.85,0,0,0-3.31,1.28,7.11,7.11,0,0,0-2.07,3.56L248.52,61.59h7.32Z"/><path class="cls-1" d="M9.84,101.21V84.6h9.61a8.66,8.66,0,0,1,3.24.59,7.53,7.53,0,0,1,2.56,1.67,7.64,7.64,0,0,1,1.68,2.57,8.73,8.73,0,0,1,.61,3.3,9.17,9.17,0,0,1-.61,3.36,8.14,8.14,0,0,1-1.68,2.68,7.81,7.81,0,0,1-2.56,1.78,8,8,0,0,1-3.24.65Zm9.61-2.9a5.14,5.14,0,0,0,2.07-.41A5,5,0,0,0,24.26,95a6,6,0,0,0,.39-2.17,5.88,5.88,0,0,0-.39-2.16,4.91,4.91,0,0,0-2.73-2.81,5.27,5.27,0,0,0-2.07-.4H12.72v10.8Z"/><path class="cls-1" d="M36.93,101.21V84.6h2.9v16.6Z"/><path class="cls-1" d="M57.3,101.21a7.85,7.85,0,0,1-3.21-.65,7.9,7.9,0,0,1-4.25-4.47,9.16,9.16,0,0,1-.61-3.36,8.87,8.87,0,0,1,.61-3.33,7.39,7.39,0,0,1,1.69-2.57,7.61,7.61,0,0,1,2.56-1.64,8.65,8.65,0,0,1,3.21-.58h9v2.9h-9a5.27,5.27,0,0,0-2.07.4A4.89,4.89,0,0,0,53.6,89a5.09,5.09,0,0,0-1.07,1.69,5.85,5.85,0,0,0-.39,2.17A6,6,0,0,0,52.53,95a5.17,5.17,0,0,0,1.07,1.72,4.94,4.94,0,0,0,1.63,1.13,5.13,5.13,0,0,0,2.07.41h7.1V94H56.91V91.55H67.33v9.66Z"/><path class="cls-1" d="M77,101.21V84.6h2.9v16.6Z"/><path class="cls-1" d="M95.12,101.21V87.5h-6.3V84.6h15.51v2.9H98v13.7Z"/><path class="cls-1" d="M127.28,101.21,124.79,97h-7.86l1.37-2.35h5.09l-3.7-6.21-7.54,12.74h-3.31l9.55-15.9a2.21,2.21,0,0,1,.59-.69,1.35,1.35,0,0,1,.82-.25,1.3,1.3,0,0,1,.81.25,2.28,2.28,0,0,1,.58.69l9.57,15.9Z"/><path class="cls-1" d="M139.41,101.21V84.6h2.9v13.7h11.17v2.9Z"/><path class="cls-1" d="M176,101.21v-2.9h12.45a2.51,2.51,0,0,0,1.79-.59,2.07,2.07,0,0,0,.63-1.58,2,2,0,0,0-.63-1.61,2.68,2.68,0,0,0-1.79-.54h-7.63a6,6,0,0,1-2.11-.35,4.57,4.57,0,0,1-1.6-1,4.31,4.31,0,0,1-1-1.5,5,5,0,0,1-.35-1.9A5.12,5.12,0,0,1,176,87.4a4,4,0,0,1,1-1.47,4.65,4.65,0,0,1,1.61-1,6.3,6.3,0,0,1,2.19-.35h11.92v2.9H180.83a2.13,2.13,0,0,0-1.55.54,2,2,0,0,0-.55,1.5,1.93,1.93,0,0,0,.56,1.48,2.13,2.13,0,0,0,1.52.53h7.61a5.56,5.56,0,0,1,3.85,1.19,4.63,4.63,0,0,1,1.31,3.61,5.7,5.7,0,0,1-.32,1.94,4.19,4.19,0,0,1-1,1.54,4.38,4.38,0,0,1-1.61,1,6.44,6.44,0,0,1-2.27.37Z"/><path class="cls-1" d="M208.24,101.21V87.5h-6.3V84.6h15.51v2.9h-6.3v13.7Z"/><path class="cls-1" d="M241.06,84.6h2.83v9.27a10.08,10.08,0,0,1-.5,3.35,5.49,5.49,0,0,1-1.58,2.36A6.85,6.85,0,0,1,239,101a18.72,18.72,0,0,1-8.22,0A6.84,6.84,0,0,1,228,99.58a5.48,5.48,0,0,1-1.58-2.36,10.07,10.07,0,0,1-.5-3.35V84.6h3v9.27a6.6,6.6,0,0,0,.31,2.15,3.2,3.2,0,0,0,1,1.46,4.43,4.43,0,0,0,1.86.83,15.9,15.9,0,0,0,5.76,0,4.43,4.43,0,0,0,1.86-.83,3.2,3.2,0,0,0,1-1.46,6.6,6.6,0,0,0,.31-2.15Z"/><path class="cls-1" d="M253.37,101.21V84.6H263a8.66,8.66,0,0,1,3.24.59,7.53,7.53,0,0,1,2.56,1.67,7.64,7.64,0,0,1,1.68,2.57,8.73,8.73,0,0,1,.61,3.3,9.17,9.17,0,0,1-.61,3.36,8.15,8.15,0,0,1-1.68,2.68,7.81,7.81,0,0,1-2.56,1.78,8,8,0,0,1-3.24.65Zm9.61-2.9a5.14,5.14,0,0,0,2.07-.41A5,5,0,0,0,267.78,95a6,6,0,0,0,.39-2.17,5.88,5.88,0,0,0-.39-2.16,4.91,4.91,0,0,0-2.73-2.81,5.27,5.27,0,0,0-2.07-.4h-6.74v10.8Z"/><path class="cls-1" d="M280.46,101.21V84.6h2.9v16.6Z"/><path class="cls-1" d="M300.83,101.21a7.85,7.85,0,0,1-3.21-.65,7.9,7.9,0,0,1-4.25-4.47,9.16,9.16,0,0,1-.61-3.36,8.86,8.86,0,0,1,.61-3.33,7.4,7.4,0,0,1,1.69-2.57,7.61,7.61,0,0,1,2.56-1.64,8.65,8.65,0,0,1,3.21-.58h4a8.88,8.88,0,0,1,3.3.59,7.35,7.35,0,0,1,4.24,4.24,8.87,8.87,0,0,1,.59,3.3,9.16,9.16,0,0,1-.61,3.36,8,8,0,0,1-1.69,2.68,7.94,7.94,0,0,1-2.57,1.78,8,8,0,0,1-3.27.65Zm4-2.9a5.28,5.28,0,0,0,2.1-.41A5,5,0,0,0,309.71,95a6,6,0,0,0,.39-2.17,5.88,5.88,0,0,0-.39-2.16A4.88,4.88,0,0,0,307,87.9a5.42,5.42,0,0,0-2.1-.4h-4a5.27,5.27,0,0,0-2.07.4A4.89,4.89,0,0,0,297.13,89a5.09,5.09,0,0,0-1.07,1.69,5.85,5.85,0,0,0-.39,2.17,6,6,0,0,0,.39,2.17,5.16,5.16,0,0,0,1.07,1.72,4.94,4.94,0,0,0,1.63,1.13,5.13,5.13,0,0,0,2.07.41Z"/></g></svg>